<?xml version="1.0" standalone="no"?>
<svg xmlns:xlink="http://www.w3.org/1999/xlink" id="wave" style="transform:rotate(0deg); transition: 0.3s" viewBox="0 0 1440 490" version="1.1" xmlns="http://www.w3.org/2000/svg"><defs><linearGradient id="sw-gradient-0" x1="0" x2="0" y1="1" y2="0"><stop stop-color="rgba(0, 153, 255, 1)" offset="0%"/><stop stop-color="rgba(0, 153, 255, 1)" offset="100%"/></linearGradient></defs><path style="transform:translate(0, 0px); opacity:1" fill="url(#sw-gradient-0)" d="M0,147L21.8,122.5C43.6,98,87,49,131,24.5C174.5,0,218,0,262,16.3C305.5,33,349,65,393,138.8C436.4,212,480,327,524,326.7C567.3,327,611,212,655,163.3C698.2,114,742,131,785,114.3C829.1,98,873,49,916,32.7C960,16,1004,33,1047,98C1090.9,163,1135,278,1178,302.2C1221.8,327,1265,261,1309,196C1352.7,131,1396,65,1440,49C1483.6,33,1527,65,1571,65.3C1614.5,65,1658,33,1702,65.3C1745.5,98,1789,196,1833,220.5C1876.4,245,1920,196,1964,163.3C2007.3,131,2051,114,2095,155.2C2138.2,196,2182,294,2225,285.8C2269.1,278,2313,163,2356,155.2C2400,147,2444,245,2487,294C2530.9,343,2575,343,2618,318.5C2661.8,294,2705,245,2749,228.7C2792.7,212,2836,229,2880,220.5C2923.6,212,2967,180,3011,212.3C3054.5,245,3098,343,3120,392L3141.8,441L3141.8,490L3120,490C3098.2,490,3055,490,3011,490C2967.3,490,2924,490,2880,490C2836.4,490,2793,490,2749,490C2705.5,490,2662,490,2618,490C2574.5,490,2531,490,2487,490C2443.6,490,2400,490,2356,490C2312.7,490,2269,490,2225,490C2181.8,490,2138,490,2095,490C2050.9,490,2007,490,1964,490C1920,490,1876,490,1833,490C1789.1,490,1745,490,1702,490C1658.2,490,1615,490,1571,490C1527.3,490,1484,490,1440,490C1396.4,490,1353,490,1309,490C1265.5,490,1222,490,1178,490C1134.5,490,1091,490,1047,490C1003.6,490,960,490,916,490C872.7,490,829,490,785,490C741.8,490,698,490,655,490C610.9,490,567,490,524,490C480,490,436,490,393,490C349.1,490,305,490,262,490C218.2,490,175,490,131,490C87.3,490,44,490,22,490L0,490Z"/><defs><linearGradient id="sw-gradient-1" x1="0" x2="0" y1="1" y2="0"><stop stop-color="rgba(75.035, 146.322, 193.847, 1)" offset="0%"/><stop stop-color="rgba(218.892, 154.778, 13.053, 1)" offset="100%"/></linearGradient></defs><path style="transform:translate(0, 50px); opacity:0.9" fill="url(#sw-gradient-1)" d="M0,147L21.8,179.7C43.6,212,87,278,131,261.3C174.5,245,218,147,262,130.7C305.5,114,349,180,393,236.8C436.4,294,480,343,524,351.2C567.3,359,611,327,655,334.8C698.2,343,742,392,785,416.5C829.1,441,873,441,916,375.7C960,310,1004,180,1047,171.5C1090.9,163,1135,278,1178,277.7C1221.8,278,1265,163,1309,155.2C1352.7,147,1396,245,1440,253.2C1483.6,261,1527,180,1571,130.7C1614.5,82,1658,65,1702,114.3C1745.5,163,1789,278,1833,269.5C1876.4,261,1920,131,1964,65.3C2007.3,0,2051,0,2095,8.2C2138.2,16,2182,33,2225,106.2C2269.1,180,2313,310,2356,343C2400,376,2444,310,2487,269.5C2530.9,229,2575,212,2618,220.5C2661.8,229,2705,261,2749,253.2C2792.7,245,2836,196,2880,171.5C2923.6,147,2967,147,3011,122.5C3054.5,98,3098,49,3120,24.5L3141.8,0L3141.8,490L3120,490C3098.2,490,3055,490,3011,490C2967.3,490,2924,490,2880,490C2836.4,490,2793,490,2749,490C2705.5,490,2662,490,2618,490C2574.5,490,2531,490,2487,490C2443.6,490,2400,490,2356,490C2312.7,490,2269,490,2225,490C2181.8,490,2138,490,2095,490C2050.9,490,2007,490,1964,490C1920,490,1876,490,1833,490C1789.1,490,1745,490,1702,490C1658.2,490,1615,490,1571,490C1527.3,490,1484,490,1440,490C1396.4,490,1353,490,1309,490C1265.5,490,1222,490,1178,490C1134.5,490,1091,490,1047,490C1003.6,490,960,490,916,490C872.7,490,829,490,785,490C741.8,490,698,490,655,490C610.9,490,567,490,524,490C480,490,436,490,393,490C349.1,490,305,490,262,490C218.2,490,175,490,131,490C87.3,490,44,490,22,490L0,490Z"/></svg>